<svg width="360" height="281" viewBox="0 0 360 281" fill="none" xmlns="http://www.w3.org/2000/svg">
<path fill-rule="evenodd" clip-rule="evenodd" d="M360 1.24805C283.232 1.24805 221 63.4805 221 140.248C221 217.016 283.232 279.248 360 279.248V280.248C282.68 280.248 220 217.568 220 140.248C220 62.9282 282.68 0.248047 360 0.248047V1.24805Z" fill="white"/>
<path fill-rule="evenodd" clip-rule="evenodd" d="M359.729 70.2336C321.435 70.2336 290.391 101.277 290.391 139.572C290.391 177.866 321.435 208.91 359.729 208.91V209.91C320.883 209.91 289.391 178.418 289.391 139.572C289.391 100.725 320.883 69.2336 359.729 69.2336V70.2336Z" fill="white"/>
<line y1="-0.5" x2="360" y2="-0.5" transform="matrix(-1 0 0 1 360 140)" stroke="white"/>
</svg>
