<svg width="200" height="96" viewBox="0 0 200 96" fill="none" xmlns="http://www.w3.org/2000/svg">
<path d="M146.854 69.4504C145.766 71.0596 144.677 72.2191 143.589 72.929C142.5 73.6389 141.057 73.9939 139.258 73.9939C137.318 73.9939 135.709 73.4259 134.431 72.2901C133.2 71.1542 132.277 69.1665 131.662 66.3268L130.1 59.2277C129.532 56.7666 128.988 54.8735 128.468 53.5483C127.994 52.2232 127.261 51.1583 126.267 50.3537C125.273 49.5492 123.877 49.1469 122.078 49.1469H115.334V65.4749C115.334 67.2734 115.476 68.5749 115.76 69.3794C116.044 70.184 116.565 70.7283 117.322 71.0122C118.126 71.2962 119.381 71.4855 121.084 71.5802V73C118.907 72.858 115.902 72.787 112.069 72.787C107.998 72.787 104.969 72.858 102.982 73V71.5802C104.685 71.4855 105.916 71.2962 106.673 71.0122C107.478 70.7283 108.022 70.184 108.306 69.3794C108.59 68.5749 108.732 67.2734 108.732 65.4749V30.2632C108.732 28.4647 108.59 27.1632 108.306 26.3586C108.022 25.5541 107.478 25.0098 106.673 24.7258C105.916 24.4419 104.685 24.2525 102.982 24.1579V22.7381C104.969 22.88 107.856 22.951 111.643 22.951L119.31 22.88C120.209 22.8327 121.226 22.8091 122.362 22.8091C127.852 22.8091 132.064 23.9686 134.999 26.2876C137.98 28.5594 139.471 31.5173 139.471 35.1616C139.471 37.0073 139.022 38.8768 138.122 40.7699C137.271 42.6157 135.803 44.2958 133.721 45.8103C131.686 47.2774 129.012 48.2713 125.699 48.7919L126.551 48.9339C129.674 49.4545 131.946 50.4011 133.366 51.7736C134.786 53.1461 135.827 55.3231 136.49 58.3048L138.264 65.5459C138.738 67.723 139.235 69.2375 139.755 70.0894C140.276 70.9412 140.986 71.3672 141.885 71.3672C142.69 71.3672 143.352 71.1542 143.873 70.7283C144.441 70.3023 145.08 69.6161 145.789 68.6695L146.854 69.4504ZM120.588 24.1579C119.12 24.1579 118.008 24.3235 117.251 24.6548C116.541 24.9861 116.044 25.5777 115.76 26.4296C115.476 27.2815 115.334 28.5594 115.334 30.2632V47.727H120.091C124.776 47.727 127.994 46.6858 129.745 44.6034C131.497 42.521 132.372 39.634 132.372 35.9425C132.372 32.0616 131.449 29.1273 129.603 27.1395C127.758 25.1518 124.752 24.1579 120.588 24.1579ZM194.805 67.0367C195.94 69.971 197.573 71.4855 199.703 71.5802V73C197.81 72.858 195.278 72.787 192.107 72.787C188.037 72.787 185.008 72.858 183.02 73V71.5802C184.818 71.4855 186.096 71.2725 186.854 70.9412C187.658 70.5626 188.06 69.9 188.06 68.9535C188.06 68.1489 187.776 67.0367 187.209 65.6169L182.878 53.9743H165.698L162.787 61.4994C161.841 64.0551 161.368 65.9955 161.368 67.3207C161.368 68.7878 161.865 69.8527 162.858 70.5153C163.9 71.1779 165.461 71.5328 167.544 71.5802V73C164.846 72.858 162.125 72.787 159.38 72.787C157.25 72.787 155.475 72.858 154.056 73V71.5802C156.422 71.0122 158.291 68.9535 159.664 65.4039L176.347 22.3831H177.483L194.805 67.0367ZM182.31 52.5545L174.359 31.328L166.266 52.5545H182.31Z" fill="white"/>
<path d="M46.5738 57.3897C52.1878 57.3897 56.7387 52.8389 56.7387 47.2248C56.7387 41.6111 52.1878 37.0599 46.5738 37.0599C40.96 37.0599 36.4089 41.6111 36.4089 47.2248C36.4089 52.8389 40.96 57.3897 46.5738 57.3897Z" stroke="white" stroke-width="3.54957" stroke-miterlimit="1.5" stroke-linecap="round" stroke-linejoin="round"/>
<path d="M49.9588 37.0599C49.9588 37.0599 53.3471 30.2833 53.3471 23.5067C53.3471 16.7301 46.5705 9.95349 46.5705 9.95349C46.5705 9.95349 39.7939 16.7301 39.7939 23.5067C39.7939 30.2833 43.1822 37.0599 43.1822 37.0599" stroke="white" stroke-width="3.54957" stroke-miterlimit="1.5" stroke-linecap="round" stroke-linejoin="round"/>
<path d="M36.4088 43.8333C36.4088 43.8333 29.6321 40.4449 22.8555 40.4449C16.0789 40.4449 9.30231 47.2216 9.30231 47.2216C9.30231 47.2216 16.0789 53.9982 22.8555 53.9982C29.6321 53.9982 36.4088 50.6099 36.4088 50.6099" stroke="white" stroke-width="3.54957" stroke-miterlimit="1.5" stroke-linecap="round" stroke-linejoin="round"/>
<path d="M49.9588 57.3877C49.9588 57.3877 53.3471 64.1643 53.3471 70.9409C53.3471 77.7175 46.5705 84.4941 46.5705 84.4941C46.5705 84.4941 39.7939 77.7175 39.7939 70.9409C39.7939 64.1643 43.1822 57.3877 43.1822 57.3877" stroke="white" stroke-width="3.54957" stroke-miterlimit="1.5" stroke-linecap="round" stroke-linejoin="round"/>
<path d="M56.7367 43.8333C56.7367 43.8333 63.5133 40.4449 70.2899 40.4449C77.0665 40.4449 83.8431 47.2216 83.8431 47.2216C83.8431 47.2216 77.0665 53.9982 70.2899 53.9982C63.5133 53.9982 56.7367 50.6099 56.7367 50.6099" stroke="white" stroke-width="3.54957" stroke-miterlimit="1.5" stroke-linecap="round" stroke-linejoin="round"/>
<path d="M41.7808 37.6404C41.7808 37.6404 39.3849 30.4527 34.5931 25.6609C29.8013 20.8691 20.2177 20.8691 20.2177 20.8691C20.2177 20.8691 20.2177 30.4527 25.0095 35.2445C29.8013 40.0363 36.989 42.4322 36.989 42.4322" stroke="white" stroke-width="3.54957" stroke-miterlimit="1.5" stroke-linecap="round" stroke-linejoin="round"/>
<path d="M36.9872 52.0192C36.9872 52.0192 29.7996 54.415 25.0078 59.2068C20.216 63.9985 20.216 73.5823 20.216 73.5823C20.216 73.5823 29.7996 73.5823 34.5913 68.7906C39.3831 63.9985 41.7789 56.8109 41.7789 56.8109" stroke="white" stroke-width="3.54957" stroke-miterlimit="1.5" stroke-linecap="round" stroke-linejoin="round"/>
<path d="M56.1598 52.0192C56.1598 52.0192 63.3475 54.415 68.1392 59.2068C72.9309 63.9985 72.9309 73.5823 72.9309 73.5823C72.9309 73.5823 63.3475 73.5823 58.5557 68.7906C53.764 63.9985 51.3681 56.8109 51.3681 56.8109" stroke="white" stroke-width="3.54957" stroke-miterlimit="1.5" stroke-linecap="round" stroke-linejoin="round"/>
<path d="M51.3681 37.6404C51.3681 37.6404 53.764 30.4527 58.5557 25.6609C63.3475 20.8691 72.9313 20.8691 72.9313 20.8691C72.9313 20.8691 72.9313 30.4527 68.1395 35.2445C63.3475 40.0363 56.1598 42.4322 56.1598 42.4322" stroke="white" stroke-width="3.54957" stroke-miterlimit="1.5" stroke-linecap="round" stroke-linejoin="round"/>
</svg>
