<svg width="86" height="41" viewBox="0 0 86 41" fill="none" xmlns="http://www.w3.org/2000/svg">
<path d="M63.1474 29.4737C62.6793 30.1656 62.2112 30.6642 61.7432 30.9695C61.2751 31.2747 60.6544 31.4274 59.8811 31.4274C59.0467 31.4274 58.3547 31.1832 57.8053 30.6947C57.2761 30.2063 56.8793 29.3516 56.6147 28.1305L55.9432 25.0779C55.6989 24.0196 55.4649 23.2056 55.2411 22.6358C55.0375 22.066 54.7221 21.6081 54.2947 21.2621C53.8674 20.9161 53.267 20.7432 52.4937 20.7432H49.5937V27.7642C49.5937 28.5375 49.6547 29.0972 49.7768 29.4432C49.8989 29.7891 50.1228 30.0232 50.4484 30.1453C50.7944 30.2674 51.3337 30.3488 52.0663 30.3895V31C51.1302 30.9389 49.8379 30.9084 48.1895 30.9084C46.4393 30.9084 45.1368 30.9389 44.2821 31V30.3895C45.0147 30.3488 45.5439 30.2674 45.8695 30.1453C46.2154 30.0232 46.4495 29.7891 46.5716 29.4432C46.6937 29.0972 46.7547 28.5375 46.7547 27.7642V12.6232C46.7547 11.8498 46.6937 11.2902 46.5716 10.9442C46.4495 10.5982 46.2154 10.3642 45.8695 10.2421C45.5439 10.12 45.0147 10.0386 44.2821 9.99789V9.38737C45.1368 9.44842 46.3782 9.47895 48.0063 9.47895L51.3032 9.44842C51.6898 9.42807 52.1274 9.41789 52.6158 9.41789C54.9765 9.41789 56.7877 9.91649 58.0495 10.9137C59.3316 11.8905 59.9726 13.1625 59.9726 14.7295C59.9726 15.5232 59.7793 16.327 59.3926 17.1411C59.0263 17.9347 58.3954 18.6572 57.5 19.3084C56.6249 19.9393 55.4751 20.3667 54.0505 20.5905L54.4168 20.6516C55.76 20.8754 56.7368 21.2825 57.3474 21.8726C57.9579 22.4628 58.4056 23.3989 58.6905 24.6811L59.4537 27.7947C59.6572 28.7309 59.8709 29.3821 60.0947 29.7484C60.3186 30.1147 60.6239 30.2979 61.0105 30.2979C61.3565 30.2979 61.6414 30.2063 61.8653 30.0232C62.1095 29.84 62.3842 29.5449 62.6895 29.1379L63.1474 29.4737ZM51.8526 9.99789C51.2218 9.99789 50.7435 10.0691 50.4179 10.2116C50.1126 10.354 49.8989 10.6084 49.7768 10.9747C49.6547 11.3411 49.5937 11.8905 49.5937 12.6232V20.1326H51.6389C53.6537 20.1326 55.0375 19.6849 55.7905 18.7895C56.5435 17.894 56.92 16.6526 56.92 15.0653C56.92 13.3965 56.5232 12.1347 55.7295 11.28C54.9358 10.4253 53.6435 9.99789 51.8526 9.99789ZM83.766 28.4358C84.2544 29.6975 84.9565 30.3488 85.8723 30.3895V31C85.0583 30.9389 83.9695 30.9084 82.606 30.9084C80.8558 30.9084 79.5534 30.9389 78.6986 31V30.3895C79.472 30.3488 80.0214 30.2572 80.347 30.1147C80.693 29.9519 80.866 29.667 80.866 29.26C80.866 28.914 80.7439 28.4358 80.4997 27.8253L78.6376 22.8189H71.2502L69.9986 26.0547C69.5916 27.1537 69.3881 27.9881 69.3881 28.5579C69.3881 29.1888 69.6018 29.6467 70.0291 29.9316C70.4769 30.2165 71.1484 30.3691 72.0439 30.3895V31C70.8839 30.9389 69.7137 30.9084 68.5334 30.9084C67.6176 30.9084 66.8544 30.9389 66.2439 31V30.3895C67.2614 30.1453 68.0653 29.26 68.6555 27.7337L75.8291 9.23474H76.3176L83.766 28.4358ZM78.3934 22.2084L74.9744 13.0811L71.4944 22.2084H78.3934Z" fill="black"/>
<path d="M20.0267 24.3976C22.4408 24.3976 24.3976 22.4407 24.3976 20.0267C24.3976 17.6128 22.4408 15.6558 20.0267 15.6558C17.6128 15.6558 15.6559 17.6128 15.6559 20.0267C15.6559 22.4407 17.6128 24.3976 20.0267 24.3976Z" stroke="black" stroke-width="1.52632" stroke-miterlimit="1.5" stroke-linecap="round" stroke-linejoin="round"/>
<path d="M21.4823 15.6558C21.4823 15.6558 22.9392 12.7418 22.9392 9.82789C22.9392 6.91394 20.0253 4 20.0253 4C20.0253 4 17.1114 6.91394 17.1114 9.82789C17.1114 12.7418 18.5683 15.6558 18.5683 15.6558" stroke="black" stroke-width="1.52632" stroke-miterlimit="1.5" stroke-linecap="round" stroke-linejoin="round"/>
<path d="M15.6558 18.5683C15.6558 18.5683 12.7418 17.1113 9.82789 17.1113C6.91394 17.1113 4 20.0253 4 20.0253C4 20.0253 6.91394 22.9392 9.82789 22.9392C12.7418 22.9392 15.6558 21.4822 15.6558 21.4822" stroke="black" stroke-width="1.52632" stroke-miterlimit="1.5" stroke-linecap="round" stroke-linejoin="round"/>
<path d="M21.4823 24.3967C21.4823 24.3967 22.9392 27.3107 22.9392 30.2246C22.9392 33.1386 20.0253 36.0525 20.0253 36.0525C20.0253 36.0525 17.1114 33.1386 17.1114 30.2246C17.1114 27.3107 18.5683 24.3967 18.5683 24.3967" stroke="black" stroke-width="1.52632" stroke-miterlimit="1.5" stroke-linecap="round" stroke-linejoin="round"/>
<path d="M24.3968 18.5683C24.3968 18.5683 27.3107 17.1113 30.2247 17.1113C33.1386 17.1113 36.0526 20.0253 36.0526 20.0253C36.0526 20.0253 33.1386 22.9392 30.2247 22.9392C27.3107 22.9392 24.3968 21.4822 24.3968 21.4822" stroke="black" stroke-width="1.52632" stroke-miterlimit="1.5" stroke-linecap="round" stroke-linejoin="round"/>
<path d="M17.9658 15.9054C17.9658 15.9054 16.9355 12.8147 14.875 10.7542C12.8146 8.69373 8.69363 8.69373 8.69363 8.69373C8.69363 8.69373 8.69363 12.8147 10.7541 14.8751C12.8146 16.9356 15.9053 17.9659 15.9053 17.9659" stroke="black" stroke-width="1.52632" stroke-miterlimit="1.5" stroke-linecap="round" stroke-linejoin="round"/>
<path d="M15.9045 22.0883C15.9045 22.0883 12.8138 23.1185 10.7533 25.1789C8.69287 27.2394 8.69287 31.3604 8.69287 31.3604C8.69287 31.3604 12.8138 31.3604 14.8743 29.3C16.9348 27.2394 17.9649 24.1487 17.9649 24.1487" stroke="black" stroke-width="1.52632" stroke-miterlimit="1.5" stroke-linecap="round" stroke-linejoin="round"/>
<path d="M24.1487 22.0883C24.1487 22.0883 27.2394 23.1185 29.2999 25.1789C31.3603 27.2394 31.3603 31.3604 31.3603 31.3604C31.3603 31.3604 27.2394 31.3604 25.179 29.3C23.1185 27.2394 22.0883 24.1487 22.0883 24.1487" stroke="black" stroke-width="1.52632" stroke-miterlimit="1.5" stroke-linecap="round" stroke-linejoin="round"/>
<path d="M22.0883 15.9054C22.0883 15.9054 23.1185 12.8147 25.179 10.7542C27.2394 8.69373 31.3605 8.69373 31.3605 8.69373C31.3605 8.69373 31.3605 12.8147 29.3 14.8751C27.2394 16.9356 24.1487 17.9659 24.1487 17.9659" stroke="black" stroke-width="1.52632" stroke-miterlimit="1.5" stroke-linecap="round" stroke-linejoin="round"/>
</svg>
