<svg width="57" height="57" viewBox="0 0 57 57" fill="none" xmlns="http://www.w3.org/2000/svg">
<ellipse cx="11.7632" cy="12.3149" rx="11.7632" ry="12.3149" transform="matrix(0.999937 -0.0112402 0.0102555 0.999947 14.7147 16.061)" stroke="white" stroke-width="0.980977" stroke-linecap="round" stroke-dasharray="0.2 1.96"/>
<path d="M52.7405 28.1238C52.8973 43.1765 41.3736 55.4694 27.0488 55.6279C12.7241 55.7865 0.947006 43.7516 0.790241 28.6989C0.633476 13.6462 12.1572 1.35338 26.4819 1.1948C40.8067 1.03623 52.5838 13.0711 52.7405 28.1238Z" stroke="white" stroke-width="0.980977"/>
<ellipse cx="8.82241" cy="9.23618" rx="8.82241" ry="9.23618" transform="matrix(0.999937 -0.0112402 0.0102555 0.999947 17.6555 19.0732)" fill="white"/>
<path d="M55.4576 37.3524C55.4899 40.5035 53.0812 43.0465 50.1249 43.0797C47.1686 43.1129 44.7084 40.6247 44.676 37.4736C44.6437 34.3226 47.0524 31.7796 50.0087 31.7464C52.965 31.7131 55.4253 34.2014 55.4576 37.3524Z" stroke="white" stroke-width="0.980977"/>
</svg>
