<svg width="38" height="38" viewBox="0 0 38 38" fill="none" xmlns="http://www.w3.org/2000/svg">
<path d="M37.9035 19.0019C37.9044 29.442 29.4424 37.9054 19.0032 37.9054C8.56395 37.9054 0.100561 29.442 0.0996872 19.0019C0.0988139 8.56173 8.56078 0.0983418 19 0.0983418C29.4392 0.0983418 37.9026 8.56173 37.9035 19.0019Z" stroke="white" stroke-width="0.196195"/>
<path d="M35.9019 19.0017C35.9019 28.3372 28.3346 35.9051 18.9999 35.9051C9.66528 35.9051 2.09805 28.3372 2.09807 19.0017C2.09808 9.66623 9.66535 2.09834 19 2.09834C28.3347 2.09834 35.9019 9.66623 35.9019 19.0017Z" stroke="white" stroke-width="0.196195"/>
<path d="M33.9019 19.0015C33.9019 27.2323 27.23 33.9047 18.9999 33.9047C10.7699 33.9047 4.09806 27.2323 4.09807 19.0015C4.09809 10.7707 10.7699 4.09834 19 4.09834C27.2301 4.09834 33.9019 10.7707 33.9019 19.0015Z" stroke="white" stroke-width="0.196195"/>
<ellipse cx="6" cy="6.00051" rx="6" ry="6.00051" transform="matrix(1 0 -1.83617e-06 1 13.0641 13.3632)" fill="white"/>
</svg>
