<svg width="79" height="79" viewBox="0 0 79 79" fill="none" xmlns="http://www.w3.org/2000/svg">
<ellipse cx="38" cy="38" rx="38" ry="38" transform="matrix(1 0 0.000828703 1 1.3905 1.39062)" stroke="white" stroke-width="2" stroke-linecap="round" stroke-linejoin="round" stroke-dasharray="0.2 4"/>
<circle cx="35" cy="35" r="34.8038" transform="matrix(1 0 0.000743159 1 4.36115 4.42017)" stroke="white" stroke-width="0.392391"/>
<circle cx="32" cy="32" r="31.8038" transform="matrix(1 0 0.000743159 1 7.33014 7.45166)" stroke="white" stroke-width="0.392391"/>
<path d="M68.1246 39.4829C68.1364 55.3908 55.2501 68.2867 39.3422 68.2867C23.4343 68.2867 10.5288 55.3908 10.5169 39.4829C10.5051 23.575 23.3914 10.6791 39.2993 10.6791C55.2072 10.6791 68.1127 23.575 68.1246 39.4829Z" stroke="white" stroke-width="0.392391"/>
<path d="M65.0914 39.5142C65.102 53.7652 53.5578 65.318 39.3067 65.318C25.0557 65.318 13.4944 53.7652 13.4838 39.5142C13.4732 25.2631 25.0173 13.7104 39.2684 13.7104C53.5194 13.7104 65.0808 25.2631 65.0914 39.5142Z" stroke="white" stroke-width="0.392391"/>
<path d="M51.1321 38.5357C51.2057 45.1628 45.8932 50.5907 39.2661 50.6595C32.639 50.7282 27.207 45.4117 27.1334 38.7847C27.0597 32.1577 32.3723 26.7297 38.9994 26.6609C45.6264 26.5922 51.0584 31.9087 51.1321 38.5357Z" fill="white"/>
</svg>
