<svg width="79" height="79" viewBox="0 0 79 79" fill="none" xmlns="http://www.w3.org/2000/svg">
<ellipse cx="38" cy="38" rx="38" ry="38" transform="matrix(0.999947 -0.0103302 0.0111589 0.999938 1 2)" stroke="white" stroke-width="2" stroke-linecap="round" stroke-linejoin="round" stroke-dasharray="0.2 4"/>
<circle cx="35" cy="35" r="34.8038" transform="matrix(0.999946 -0.0103714 0.0111145 0.999938 4 5)" stroke="white" stroke-width="0.392391"/>
<circle cx="32" cy="32" r="31.8038" transform="matrix(0.999946 -0.0103714 0.0111145 0.999938 7 8)" stroke="white" stroke-width="0.392391"/>
<path d="M68.123 39.3987C68.2998 55.3056 55.548 68.3345 39.6409 68.4995C23.7339 68.6645 10.6953 55.9031 10.5185 39.9962C10.3417 24.0893 23.0936 11.0604 39.0006 10.8954C54.9077 10.7304 67.9462 23.4918 68.123 39.3987Z" stroke="white" stroke-width="0.392391"/>
<path d="M65.09 39.4611C65.2484 53.7113 53.8247 65.3831 39.5744 65.531C25.3241 65.6788 13.6436 54.2465 13.4852 39.9964C13.3268 25.7462 24.7505 14.0743 39.0008 13.9265C53.2511 13.7787 64.9316 25.2109 65.09 39.4611Z" stroke="white" stroke-width="0.392391"/>
<path d="M51.1321 38.7503C51.2057 45.3774 45.8932 50.8053 39.2661 50.8741C32.639 50.9428 27.207 45.6263 27.1334 38.9993C27.0597 32.3723 32.3723 26.9443 38.9994 26.8755C45.6264 26.8068 51.0584 32.1233 51.1321 38.7503Z" fill="white"/>
</svg>
