<svg width="40" height="40" viewBox="0 0 40 40" fill="none" xmlns="http://www.w3.org/2000/svg">
<path d="M38.9035 20.0016C38.9044 30.4418 30.4424 38.9051 20.0032 38.9051C9.56395 38.9051 1.10056 30.4418 1.09969 20.0016C1.09881 9.56149 9.56078 1.0981 20 1.0981C30.4392 1.0981 38.9026 9.56149 38.9035 20.0016Z" stroke="white" stroke-width="0.196195"/>
<path d="M36.9019 20.0015C36.9019 29.3369 29.3346 36.9048 19.9999 36.9048C10.6653 36.9048 3.09805 29.3369 3.09807 20.0015C3.09808 10.666 10.6653 3.0981 20 3.0981C29.3347 3.0981 36.9019 10.666 36.9019 20.0015Z" stroke="white" stroke-width="0.196195"/>
<path d="M34.9019 20.0013C34.9019 28.2321 28.23 34.9045 19.9999 34.9045C11.7699 34.9045 5.09806 28.2321 5.09807 20.0013C5.09809 11.7705 11.7699 5.0981 20 5.0981C28.2301 5.0981 34.9019 11.7705 34.9019 20.0013Z" stroke="white" stroke-width="0.196195"/>
<ellipse cx="6" cy="6.00051" rx="6" ry="6.00051" transform="matrix(1 0 -1.83617e-06 1 14.0641 14.363)" fill="white"/>
</svg>
